<?xml version="1.0" standalone="no"?><!DOCTYPE svg PUBLIC "-//W3C//DTD SVG 1.1//EN" "http://www.w3.org/Graphics/SVG/1.1/DTD/svg11.dtd"><svg t="1582893035618" class="icon" viewBox="0 0 1024 1024" version="1.1" xmlns="http://www.w3.org/2000/svg" p-id="3770" xmlns:xlink="http://www.w3.org/1999/xlink" width="200" height="200"><defs><style type="text/css"></style></defs><path d="M791.272727 906.891636V418.909091a46.545455 46.545455 0 0 1 93.090909 0v556.683636a46.545455 46.545455 0 0 1-63.767272 43.194182l-166.167273-66.280727-98.676364 52.503273a93.090909 93.090909 0 0 1-87.505454 0l-98.676364-52.503273-166.167273 66.280727A46.545455 46.545455 0 0 1 139.636364 975.546182V232.727273a46.545455 46.545455 0 1 1 93.090909 0v674.164363l102.353454-40.866909a93.090909 93.090909 0 0 1 78.196364 4.282182L512 922.856727l98.676364-52.549818a93.090909 93.090909 0 0 1 78.242909-4.282182l102.353454 40.866909z" fill="#313645" p-id="3771"></path><path d="M139.636364 93.090909v93.090909h744.727272V93.090909H139.636364z m0-93.090909h744.727272a93.090909 93.090909 0 0 1 93.090909 93.090909v93.090909a93.090909 93.090909 0 0 1-93.090909 93.090909H139.636364a93.090909 93.090909 0 0 1-93.090909-93.090909V93.090909a93.090909 93.090909 0 0 1 93.090909-93.090909zM372.363636 512a46.545455 46.545455 0 0 1 0-93.090909h279.226182a46.545455 46.545455 0 0 1 0 93.090909H372.363636zM372.363636 698.181818a46.545455 46.545455 0 0 1 0-93.090909h279.226182a46.545455 46.545455 0 0 1 0 93.090909H372.363636z" fill="#313645" p-id="3772"></path></svg>