<?xml version="1.0" standalone="no"?><!DOCTYPE svg PUBLIC "-//W3C//DTD SVG 1.1//EN" "http://www.w3.org/Graphics/SVG/1.1/DTD/svg11.dtd"><svg t="1582895046088" class="icon" viewBox="0 0 1024 1024" version="1.1" xmlns="http://www.w3.org/2000/svg" p-id="8907" xmlns:xlink="http://www.w3.org/1999/xlink" width="200" height="200"><defs><style type="text/css"></style></defs><path d="M405.333333 448H512a42.666667 42.666667 0 0 0 0-85.333333h-42.666667V341.333333a42.666667 42.666667 0 0 0-85.333333 0v23.466667a106.666667 106.666667 0 0 0 21.333333 211.2h42.666667a21.333333 21.333333 0 0 1 0 42.666667H341.333333a42.666667 42.666667 0 0 0 0 85.333333h42.666667v21.333333a42.666667 42.666667 0 0 0 85.333333 0v-23.466666a106.666667 106.666667 0 0 0-21.333333-211.2h-42.666667a21.333333 21.333333 0 0 1 0-42.666667zM896 512h-128V128a42.666667 42.666667 0 0 0-21.333333-37.12 42.666667 42.666667 0 0 0-42.666667 0l-128 73.386667-128-73.386667a42.666667 42.666667 0 0 0-42.666667 0l-128 73.386667-128-73.386667a42.666667 42.666667 0 0 0-42.666666 0A42.666667 42.666667 0 0 0 85.333333 128v682.666667a128 128 0 0 0 128 128h597.333334a128 128 0 0 0 128-128v-256a42.666667 42.666667 0 0 0-42.666667-42.666667zM213.333333 853.333333a42.666667 42.666667 0 0 1-42.666666-42.666666V201.813333l85.333333 48.64a46.08 46.08 0 0 0 42.666667 0l128-73.386666 128 73.386666a46.08 46.08 0 0 0 42.666666 0l85.333334-48.64V810.666667a128 128 0 0 0 7.68 42.666666z m640-42.666666a42.666667 42.666667 0 0 1-85.333333 0v-213.333334h85.333333z" p-id="8908"></path></svg>