<?xml version="1.0" standalone="no"?><!DOCTYPE svg PUBLIC "-//W3C//DTD SVG 1.1//EN" "http://www.w3.org/Graphics/SVG/1.1/DTD/svg11.dtd"><svg t="1582893111224" class="icon" viewBox="0 0 1024 1024" version="1.1" xmlns="http://www.w3.org/2000/svg" p-id="5594" xmlns:xlink="http://www.w3.org/1999/xlink" width="200" height="200"><defs><style type="text/css"></style></defs><path d="M870.4 772.267c23.467 0 40.533 19.2 40.533 40.533s-19.2 40.533-40.533 40.533H142.933c-23.466 0-40.533-19.2-40.533-40.533v-608c0-23.467 19.2-40.533 40.533-40.533s40.534 19.2 40.534 40.533v567.467H870.4zM277.333 533.333c0-23.466 19.2-40.533 40.534-40.533S358.4 512 358.4 533.333v123.734c0 23.466-19.2 40.533-40.533 40.533s-40.534-19.2-40.534-42.667v-121.6z m157.867-160c0-23.466 19.2-40.533 40.533-40.533s40.534 19.2 40.534 40.533v277.334c0 23.466-19.2 40.533-40.534 40.533S435.2 672 435.2 650.667V373.333zM738.133 256c0-23.467 19.2-40.533 40.534-40.533S819.2 234.667 819.2 256v388.267c0 23.466-19.2 40.533-40.533 40.533s-40.534-19.2-40.534-40.533V256zM593.067 501.333c0-23.466 19.2-40.533 40.533-40.533s40.533 19.2 40.533 40.533v142.934c0 23.466-19.2 40.533-40.533 40.533s-40.533-19.2-40.533-40.533V501.333z" p-id="5595"></path></svg>