<?xml version="1.0" standalone="no"?><!DOCTYPE svg PUBLIC "-//W3C//DTD SVG 1.1//EN" "http://www.w3.org/Graphics/SVG/1.1/DTD/svg11.dtd"><svg t="1582515702443" class="icon" viewBox="0 0 1024 1024" version="1.1" xmlns="http://www.w3.org/2000/svg" p-id="6526" xmlns:xlink="http://www.w3.org/1999/xlink" width="200" height="200"><defs><style type="text/css"></style></defs><path d="M470.306412 896.570749c-24.998347 0-53.399187-6.243191-76.735685-29.584806l-236.660025-236.660025c-43.221384-43.220361-34.905998-113.00575 0-147.911748l266.23869-266.237667c11.5695-11.5695 33.43039-13.402241 44.994774-1.836835 11.776208 11.776208 16.331967 29.291117-3.994987 49.612954l-258.456447 258.461563c-26.804483 26.798343-23.816428 44.13622 1.151219 69.102844l230.181473 230.178403c20.561291 20.561291 38.810934 22.190395 62.625316-1.626034L807.720142 512.001023c23.575952-23.576975 29.584806-43.13031 29.584806-88.748277L837.304947 304.924781c0-101.734032-16.598027-118.333082-118.333082-118.333082L541.482475 186.591699c-16.331967 0-29.584806-13.252839-29.584806-29.578666 0-16.331967 13.252839-29.584806 29.584806-29.584806l177.490413 0c134.366244 0 177.496553 43.13031 177.496553 177.496553l0 118.326942c0 68.155263-7.633864 96.380094-59.163471 147.911748L541.482475 866.985944C525.534248 882.930077 500.332263 896.570749 470.306412 896.570749zM689.394223 304.924781c-16.331967 0-29.584806 13.279445-29.584806 29.578666 0 16.300244 13.252839 29.584806 29.584806 29.584806 16.325827 0 29.578666-13.284561 29.578666-29.584806C718.972888 318.204226 705.719027 304.924781 689.394223 304.924781zM689.394223 423.251723c-48.931432 0-88.748277-39.816844-88.748277-88.748277 0-48.926316 39.816844-88.748277 88.748277-88.748277 48.925293 0 88.742137 39.821961 88.742137 88.748277C778.13636 383.434879 738.318492 423.251723 689.394223 423.251723z" p-id="6527"></path></svg>